<svg width="523" height="528" viewBox="0 0 523 528" fill="none" xmlns="http://www.w3.org/2000/svg">
<path d="M373.336 22.4013C373.336 9.70866 363.628 0 350.935 0H171.735C159.042 0 149.333 9.70826 149.333 22.4013V80.6413H0V95.5733H74.6667V489.813C74.6667 510.72 91.0933 527.147 112 527.147H410.667C431.573 527.147 448 510.72 448 489.813V95.5733H522.667V80.6413H373.333L373.336 22.4013ZM164.269 22.4013C164.269 17.9221 167.254 14.9325 171.738 14.9325H350.938C355.417 14.9325 358.407 17.9169 358.407 22.4013V80.6413H164.274L164.269 22.4013ZM433.069 489.815C433.069 502.507 423.361 512.216 410.668 512.216H112.001C99.3087 512.216 89.6 502.508 89.6 489.815V95.5747H433.067L433.069 489.815Z" fill="black"/>
</svg>
