<svg width="583" height="463" viewBox="0 0 583 463" fill="none" xmlns="http://www.w3.org/2000/svg">
<path d="M290.304 0.0521674C288.637 0.218834 287.356 0.739674 286.569 1.21883L2.83611 225.219C-0.195089 227.281 -1.00762 232.839 1.43505 235.953C3.87772 239.068 9.05478 239.563 12.1694 237.12L291.236 16.8532L570.303 237.12C573.417 239.563 578.595 239.068 581.037 235.953C583.48 232.839 582.844 227.208 579.636 225.219L295.903 1.21883C294.028 0.0782074 291.971 -0.114499 290.304 0.0521674ZM97.1039 187.186L82.1718 198.852V455.279H82.1666C82.1666 459.404 85.5104 462.748 89.6354 462.748H216.567C220.693 462.748 224.036 459.404 224.036 455.279V380.612C224.036 343.252 253.88 313.415 291.234 313.415C328.594 313.415 358.431 343.259 358.431 380.612V455.279C358.431 459.404 361.775 462.748 365.9 462.748H492.832C496.957 462.748 500.301 459.404 500.301 455.279V198.852L485.369 187.186V447.825H373.369V380.628C373.369 335.253 336.609 298.492 291.233 298.492C245.857 298.492 209.097 335.252 209.097 380.628V447.825H97.0965V187.186H97.1039Z" fill="black"/>
</svg>
