<svg width="599" height="599" viewBox="0 0 599 599" fill="none" xmlns="http://www.w3.org/2000/svg">
<path d="M0 299.453C0 464.573 134.333 598.907 299.453 598.907C464.573 598.907 598.907 464.573 598.907 299.453C598.907 134.333 464.573 0 299.453 0C134.333 0 0 134.333 0 299.453ZM121.083 520.893V520.888C121.083 423.248 200.52 343.808 298.163 343.808C395.805 343.808 475.243 423.245 475.243 520.888C475.243 521.513 475.451 522.07 475.602 522.649C427.113 560.998 365.941 583.971 299.455 583.971C231.966 583.971 169.915 560.305 121.083 520.893ZM299.456 14.9333C456.336 14.9333 583.976 142.569 583.976 299.453C583.976 383.161 547.627 458.52 489.897 510.64C485.382 425.213 424.772 354.453 344.311 334.52C387.327 316.437 417.617 273.875 417.617 224.364C417.617 158.5 364.029 104.911 298.164 104.911C232.3 104.916 178.721 158.509 178.721 224.375C178.721 273.885 209.008 316.448 252.024 334.531C172.269 354.285 112.051 424.004 106.611 508.424C50.2987 456.403 14.944 382.008 14.944 299.477C14.944 142.597 142.58 14.9573 299.464 14.9573L299.456 14.9333ZM298.164 328.867C240.534 328.867 193.643 281.981 193.643 224.345C193.643 166.709 240.528 119.824 298.164 119.824C355.8 119.824 402.686 166.709 402.686 224.345C402.686 281.981 355.8 328.867 298.164 328.867Z" fill="black"/>
</svg>
