<svg width="673" height="672" viewBox="0 0 673 672" fill="none" xmlns="http://www.w3.org/2000/svg">
<!-- <path d="M452.109 296.921L469.478 299.854C480.754 233.198 458.978 164.894 411.223 117.16C381.635 87.5563 344.354 67.723 303.421 59.8003L300.066 77.0923C337.55 84.3423 371.67 102.508 398.785 129.614C442.498 173.322 462.436 235.868 452.108 296.92L452.109 296.921Z" fill="black"/> -->
<path d="M672.015 659.548L457.082 444.615C553.899 341.188 551.915 178.308 450.993 77.3747C401.103 27.484 334.769 0 264.193 0C193.631 0 127.287 27.484 77.38 77.3747C27.4787 127.276 0 193.625 0 264.188C0 334.756 27.4787 401.108 77.3747 450.988C127.276 500.895 193.615 528.363 264.188 528.363C331.824 528.363 395.511 503.071 444.615 457.065L659.548 671.999L672.015 659.548ZM89.8552 438.548C43.2765 391.98 17.6365 330.059 17.6365 264.188C17.6365 198.317 43.2765 136.412 89.8552 89.828C136.434 43.26 198.355 17.6093 264.215 17.6093C330.079 17.6093 392.002 43.2653 438.575 89.828C534.715 185.968 534.715 342.401 438.575 438.535C392.007 485.103 330.086 510.759 264.215 510.759C198.355 510.759 136.445 485.108 89.8552 438.535V438.548Z" fill="black"/>
</svg>
