<svg width="694" height="562" viewBox="0 0 694 562" fill="none" xmlns="http://www.w3.org/2000/svg">
<path d="M87.2547 0.00884008H5.33333C2.38547 0.00884008 0 2.39431 0 5.34217C0 8.29004 2.38547 10.6755 5.33333 10.6755H83.12L130.568 195.089H113.735C110.787 195.089 108.401 197.474 108.401 200.422C108.401 203.37 110.787 205.756 113.735 205.756H133.313L147.511 260.938H128.229C125.281 260.938 122.896 263.324 122.896 266.272C122.896 269.219 125.281 271.605 128.229 271.605H150.256L167.177 337.381H134.537C131.589 337.381 129.204 339.766 129.204 342.714C129.204 345.662 131.589 348.048 134.537 348.048H169.923L185.407 408.23C190.922 429.684 210.224 444.668 232.365 444.704C232.397 444.704 232.428 444.724 232.459 444.724H237.365C220.297 456.131 209.021 475.558 209.021 497.584C209.021 532.62 237.527 561.12 272.557 561.12C307.593 561.12 336.093 532.62 336.093 497.584C336.093 475.558 324.823 456.131 307.755 444.724H511.688C494.62 456.131 483.344 475.558 483.344 497.584C483.344 532.62 511.849 561.12 546.88 561.12C581.916 561.12 610.416 532.62 610.416 497.584C610.416 474.74 598.26 454.735 580.119 443.532C596.988 439.798 610.755 427.355 615.941 410.116L693.113 124.143C693.546 122.539 693.207 120.825 692.202 119.508C691.192 118.19 689.624 117.419 687.967 117.419H121.581L92.4035 4.01768C91.7993 1.65315 89.6743 0.0124717 87.242 0.0124717L87.2547 0.00884008ZM325.441 497.582C325.441 526.733 301.728 550.452 272.572 550.452C243.416 550.452 219.703 526.733 219.703 497.582C219.703 468.53 243.255 444.889 272.265 444.722H272.885C301.89 444.889 325.441 468.525 325.441 497.582ZM599.775 497.582C599.775 526.733 576.061 550.452 546.905 550.452C517.749 550.452 494.036 526.733 494.036 497.582C494.036 468.53 517.588 444.889 546.599 444.722H547.218C576.224 444.889 599.775 468.525 599.775 497.582ZM681.025 128.089L605.708 407.196C600.87 423.269 586.312 434.065 569.479 434.065H547.208C547.104 434.065 547.005 434.049 546.901 434.049C546.797 434.049 546.698 434.065 546.593 434.065L272.873 434.06C272.769 434.06 272.67 434.044 272.566 434.044C272.462 434.044 272.363 434.06 272.259 434.06H232.535C232.509 434.06 232.483 434.044 232.457 434.044C215.15 434.044 200.05 422.336 195.743 405.575L180.937 348.048H381.63C384.578 348.048 386.963 345.663 386.963 342.715C386.963 339.767 384.578 337.381 381.63 337.381H178.19L161.269 271.605H176.378C179.326 271.605 181.711 269.22 181.711 266.272C181.711 263.324 179.326 260.939 176.378 260.939H158.523L144.326 205.756H346.539C349.487 205.756 351.873 203.371 351.873 200.423C351.873 197.475 349.487 195.089 346.539 195.089H141.579L124.334 128.089L681.025 128.089Z" fill="black"/>
</svg>
