<svg width="240" height="240" viewBox="0 0 240 240" fill="none" xmlns="http://www.w3.org/2000/svg">
<path fill-rule="evenodd" clip-rule="evenodd" d="M6.13599 0.0350349C3.34959 0.540248 1.08908 2.57663 0.297484 5.29543C-0.494182 8.01423 0.323519 10.9465 2.40161 12.8684L109.038 119.504L2.40161 226.14V226.135C0.979744 227.531 0.167194 229.432 0.141194 231.422C0.12036 233.411 0.891193 235.333 2.28186 236.755C3.67773 238.177 5.57881 238.989 7.56828 239.01C9.56308 239.036 11.4797 238.265 12.9016 236.869L119.766 130.233L226.402 236.869C227.823 238.265 229.745 239.036 231.735 239.01C233.725 238.989 235.626 238.177 237.021 236.755C238.412 235.333 239.183 233.411 239.162 231.422C239.141 229.432 238.329 227.531 236.902 226.135L130.271 119.499L236.902 12.8685C239.115 10.7278 239.787 7.45702 238.599 4.61849C237.412 1.77996 234.61 -0.0377763 231.537 0.035157C229.62 0.0507823 227.782 0.800788 226.401 2.1341L119.771 108.77L12.9015 2.1341C11.464 0.743428 9.53175 -0.0117763 7.53695 0.035157C7.0682 -0.011719 6.59956 -0.0118411 6.13599 0.0350349Z" fill="black"/>
</svg>
